<?xml version="1.0" encoding="utf-8"?>
<!-- Generator: Adobe Illustrator 19.2.1, SVG Export Plug-In . SVG Version: 6.00 Build 0)  -->
<svg version="1.1" id="Layer_1" xmlns="http://www.w3.org/2000/svg" xmlns:xlink="http://www.w3.org/1999/xlink" x="0px" y="0px"
	 viewBox="0 0 56.3 56.3" style="enable-background:new 0 0 56.3 56.3;" xml:space="preserve">
<style type="text/css">
	.st0{fill:#4A4797;}
	.st1{fill:#555659;}
	.st2{fill:#C3C2CE;}
	.st3{fill:#FFFFFF;}
	.st4{fill:#1E1E40;}
	.st5{fill:#2E2C55;}
	.st6{fill:#EA5B1B;stroke:#000000;stroke-width:0.9;stroke-miterlimit:10;}
	.st7{fill:#EA5B1B;stroke:#000000;stroke-width:0.9;stroke-linecap:round;stroke-linejoin:round;stroke-miterlimit:10;}
</style>
<g>
	<g>
		<g>
			<rect class="st0" width="56.3" height="56.3"/>
		</g>
	</g>
</g>
<g>
	<g>
		<path class="st1" d="M20,39.8L34.2,41c0,0,5.2,6,5,7.3c-0.2,1.3,1.2,7.5-1.4,8.8c-2.7,1.3-10.8-1.4-12.1-1.7s-5.5,1.7-8.3-1.9
			c-2.8-3.8-0.7-1.5-0.7-3.4C16.5,48.2,20,39.8,20,39.8z"/>
	</g>
</g>
<g>
	<g>
		<path class="st2" d="M37.3,39.7c-0.4,0.1-0.6,0.2-0.6,0.3c0,0.3,0.4,0.1,1.7,0.7c-1.6,0.4-3.9,0.8-5.4,0.5
			c0.2-0.4,0.4-0.9,0.5-1.4c0.1-0.2,0.2-0.5,0.2-0.8c1.4-0.2,0.8-0.4,2.3-0.6c0-0.1,0.6-0.1,0.6-0.2c-0.2-0.1,0.9-0.3,0.7-0.3
			c-0.2-0.1-0.3-0.2-0.6-0.4c3.4-1.8,5.6-4.5,7-8.1c-3.2-0.5-4.5-1.6-5-3.9c-2.4-0.5-4.4,0.2-6.2,1.8c-0.1-0.5-0.1-0.9-0.2-1.4
			c-1.5,2.4-1.9,2.8-2.9,3c-1-2-1.2-3.1-1.7-5.4v-0.4l0,0l0,0v0.4c-0.5,2.3-0.5,3.7-1.5,5.7c-0.9-0.2-1.7-1-3.2-3.3
			c-0.1,0.5-0.2,1-0.2,1.4c-1.8-1.6-3.6-1.9-5.9-1.4c-0.5,2.3-0.5,3.2-3.7,3.8c1.3,3.6,3.1,6.1,6.4,7.9c-0.2,0.2-0.7,0.3-0.9,0.4
			c-0.2,0.1-0.3,0.3-0.5,0.4c0,0.1-0.8-0.4-0.8-0.3c1.3,0.2,2.8,0.7,4.1,1c0.1,0.2,0.2,0.5,0.2,0.8c0.1,0.5,0.3,1,0.5,1.4
			c-1.5,0.3-3.8-0.1-5.4-0.5c1.7-0.2,1.7-0.4,1.7-0.7c0-0.1,0-0.4-0.5-0.5c-5.7-0.6-8.2-5.2-9.4-7.2c1.2,0.5,1.8,0.9,2,0.6
			c0.1-0.2,0.2-0.4-0.2-0.7c-1.2-1.2-1.8-5.1-2-6.8c0.8,0.3,2.2,1,3.5,0.6c1.6-0.5,2.9-1.9,3.8-4.2l0,0c0.1,0,0.2,0.1,0.3,0.1
			c0.1-0.2,0.2-0.4,0.3-0.6c0.1-0.2,0.1-0.5,0-0.7c-0.6-1.7-1.1-3.5-1.1-5.3c0-0.5,0.3-1.5,0.4-2.1c1.2,0.5,2,1.4,2.8,2.3
			c0.4,0.5,0.8,0.9,1.3,1.4c0.7,0.7,2,1,2.2,0c0.1-0.3-0.2-0.6-0.4-0.9c-0.1,0-0.1-0.1-0.1-0.1c1.1-0.4,3.7-1.3,5.9-0.8
			c0.1,0,0.2,0,0.3,0c0.1,0,0.2,0.1,0.3,0c2.3-0.5,5.3-0.2,6.4,0.3l0.5,0.8c-0.2,0.3-0.7,0.6-0.6,0.8c0.3,0.4,0.4,0.6,1.1-0.2
			c0.4-0.5,0.8-1,1.3-1.5c0.7-0.9,2.5-2.3,3.8-2.8c0.1,0.6,0.3,2.5,0.3,3c0,1.8-0.4,3.3-1.1,5c-0.1,0.2-0.5,0.5-0.4,0.8s0,0,0.1,0.2
			c0.1,0,0.4,0.2,0.5,0.2l-0.1,0.2c0.9,2.3,2.1,3.3,3.7,3.8c1.4,0.4,3.2-0.1,3.9-0.5c-0.2,1.6-1.5,5.8-2.8,7.1
			c-0.3,0.3-0.3,0.6-0.2,0.7c0.2,0.2,1.1-0.4,2.4-0.9C45.8,35,42,39,37.3,39.7z"/>
	</g>
</g>
<g>
	<g>
		<path class="st3" d="M46.7,28.5c-0.5,1-1.3,1.3-1.3,1.3V28c-1.8,0.2-4.9,0.4-5.3-3.8H40c-0.8-0.5-1.6-0.8-2.6-0.9
			c-0.3,0-0.6-0.1-0.8-0.1l0.7-1.2c0,0-4.1-0.2-6.3,2.2c-0.3,0.3,0-1.5,0-1.5s-1.3,0.3-2.9,1.5l-0.4,1.5l-0.4-1.5
			c-1.6-1.2-2.9-1.5-2.9-1.5s0.3,1.7,0,1.5c-2.3-2.4-6.3-2.2-6.3-2.2l0.7,1.2c-0.3,0-0.5,0-0.8,0.1c-0.9,0.1-1.7,0.5-2.6,0.9h-0.1
			c-0.4,4.2-3.5,4-5.3,3.8v1.8c0,0-0.8-0.2-1.3-1.3L8.6,29l0.1,0.6c2.7,5.9,5.5,6.8,9.8,7.8l1.3,0.1l1.7,0.9l0.2,1.2
			c0.4,1.5,1,1.9,2.3,2.9l0.5,0.4l1.5-0.8l1.6-0.2l1.6,0.2l1.2,0.6l0.6,0.2c1.2-0.9,2-1.7,2.5-3.3l0.2-1.2l1.7-0.9l1.3-0.1
			c4.3-1.1,7.5-2.6,10.1-8.6L46.7,28.5z"/>
	</g>
</g>
<g>
	<g>
		<path class="st4" d="M26.8,36.5c0.7-0.3,1.5-0.3,2.3,0.1l0,0c0.7,0.4,0.8,1,0.3,1.7l-0.1,0.1c-1.2,1.6-2,1.2-3.1-0.3
			c-0.3-0.5-0.2-1,0.3-1.3C26.5,36.6,26.6,36.6,26.8,36.5z"/>
	</g>
</g>
<g>
	<g>
		<path class="st4" d="M47,31.4c-0.3,0.1-0.6,0.3-0.9,0.4c1.3-2.4,1.7-6.6,1.7-6.8l0.1-0.9l-0.7,0.5c0,0-1.7,1.1-3.6,0.6
			c-1.3-0.4-2.5-1.6-3.3-3.7c0,0,0,0,0-0.1l0,0c0-0.1,0-0.2,0.1-0.3c0.4-1,0.9-2,1.2-3.2c0.6-1.9,0.6-3.9-0.2-5.7
			c-0.6-1.3-0.6-1.3-2-1c-2,0.5-3.7,1.7-5.1,3.2c-0.2,0.2-0.4,0.3-0.6,0.3c-1.3-0.5-3.8-1.1-5.9-0.6h-0.1h-0.1
			c-2.2-0.5-4.5,0.1-5.9,0.6c-0.2,0-0.4-0.1-0.6-0.3c-1.4-1.4-3.1-2.7-5.1-3.2c-1.4-0.4-1.4-0.3-2,1C13,14.1,13.1,16,13.6,18
			c0.3,1.1,0.8,2,1.2,3.2c0,0.1,0,0.2,0.1,0.3l0,0c0,0,0,0,0,0.1c-0.8,2-1.8,3.3-3.3,3.7c-1.8,0.5-3.5-0.5-3.6-0.6l-0.7-0.5L7.6,25
			c0,0.2,0.4,4.4,1.7,6.8c-0.3-0.1-0.6-0.3-0.9-0.4l-1.1-0.5L7.8,32c0.1,0.3,2.9,6.1,8.3,7.9c-0.5,0.1-1,0.1-1.5,0.2l-1.4,0.2
			l1.3,0.7c0.2,0.1,3.8,1.2,6.6,1.2c0.6,0,1.1-0.1,1.6-0.2c0.2,0.3,0.5,0.6,0.8,0.8c0.3,0.2,0.5,0.3,0.7,0.4c0.1,0,0.3,0,0.3,0
			l0.9-0.5c0,0,0.2,0.1,0.5,0.2c1,0.5,2.3,0.5,3.4,0l0.5-0.2l0.9,0.5c0,0,0.2,0,0.3,0c0.2-0.1,0.4-0.1,0.7-0.4
			c0.3-0.3,0.6-0.5,0.8-0.8c0.5,0.1,1,0.2,1.6,0.2c2.8,0,6.3-1.1,6.6-1.2l1.8-0.6l-1.9-0.2c-0.5-0.1-1-0.1-1.5-0.2
			c5.4-1.8,8.2-7.7,8.3-7.9l0.5-1.1L47,31.4z M30.9,42.3c-1.5-0.9-2.4-1.4-3.2-1.4l0,0l0,0l0,0l0,0c-0.8,0-1.6,0.4-3.2,1.4
			c-2.3-1.3-2.5-5.5-1.4-7.5c0.2,0.4,0.3,0.8,0.4,1.2c0.3-0.8,0.6-1.6,1-2.4c0.7-1.3,0.9-1.6,0.9-1.6c0.8-1.2,3.7-1.2,4.4,0
			c0,0,0.3,0.3,0.9,1.6c0.4,0.7,0.7,1.5,1,2.4c0.1-0.4,0.3-0.8,0.4-1.2C33.3,36.9,33.1,41.1,30.9,42.3z M21.6,32.6
			c-1.3-0.3-1.9-1.3-2.6-1.9c1.6,0.2,4.1,0.8,4.6,1.3C23.1,32.6,22.4,32.8,21.6,32.6z M31.8,32c0.5-0.5,3-1.1,4.6-1.3
			c-0.6,0.6-1.2,1.5-2.6,1.9C33,32.8,32.4,32.6,31.8,32z M37.3,39.7c-0.4,0.1-1.3,0.2-1.2,0.2c0.1,0.2,0.6,0.2,2.4,0.8
			c-1.6,0.4-3.9,0.8-5.4,0.5c0.2-0.4,0.4-0.9,0.5-1.4c0.1-0.2,0.2-0.5,0.2-0.8c1.4-0.2,2.8-0.5,4.2-0.7c0-0.1,0,0.1,0,0
			c-0.2-0.1-0.4-0.3-0.5-0.4c-0.2-0.1-0.3-0.2-0.6-0.4c3.4-1.8,5.6-4.5,7-8.1c-3.2-0.5-4.5-1.6-5-3.9c-2.4-0.5-4.4,0.2-6.2,1.8
			c-0.1-0.5-0.1-0.9-0.2-1.4c-1.5,2.4-1.9,2.8-2.9,3c-1-2-1.3-4.3-1.7-6.6v-0.1l0,0l0,0v0.1c-0.5,2.3-0.7,4.5-1.7,6.6
			c-0.9-0.2-1.3-0.6-2.9-3c-0.1,0.5-0.2,1-0.2,1.4c-1.8-1.6-3.9-2.4-6.2-1.8c-0.5,2.3-1.8,3.4-5,3.9c1.3,3.6,3.7,6.2,7,8.1
			c-0.2,0.2-0.4,0.3-0.6,0.4c-0.2,0.1-0.3,0.1-0.5,0.2c0,0.1,0-0.1,0,0c1.3,0.2,2.5,0.9,3.8,1.2c0.1,0.2,0.5,0.3,0.5,0.6
			c0.1,0.5,0.3,1,0.5,1.4c-1.5,0.3-3.8-0.1-5.4-0.5c1.7-0.2,1.7-0.4,1.7-0.7c0-0.1,0-0.4-0.5-0.5c-4.7-0.6-7.7-4.7-8.9-6.8
			c1.2,0.5,1.8,0.9,2,0.7c0.1-0.2-0.4-0.6-0.7-1c-1-1.4-1.7-5-1.9-6.7c0.8,0.3,2.2,0.7,3.5,0.3c1.6-0.5,2.9-1.9,3.8-4.2l0,0
			c0.1,0,0.2,0.1,0.3,0.1c0.1-0.2,0.2-0.4,0.3-0.6c0.1-0.2,0.1-0.5,0-0.7c-0.6-1.7-1.1-3.5-1.1-5.3c0-0.5,0.1-1,0.2-1.6
			c1.2,0.5,2,1.2,2.9,2.2c0.4,0.5,0.8,1,1.3,1.5c0.7,0.7,2,0.5,2.3-0.5c0.1-0.3-0.2-0.6-0.4-0.9c-0.1,0-0.1-0.1-0.1-0.1
			c1.1-0.4,3.7-1.3,5.9-0.8c0.1,0,0.5,0,0.5,0c2.3-0.5,4.8,0.3,5.9,0.8L33.7,16c-0.2,0.3-0.5,0.7-0.4,0.9c0.2,1,1.5,1.2,2.3,0.5
			c0.4-0.5,0.8-1,1.3-1.5c0.7-0.9,1.6-1.6,2.9-2.2c0.1,0.6,0.2,1.1,0.2,1.6c0,1.8-0.4,3.6-1.1,5.3c-0.1,0.2-0.1,0.5,0,0.7
			s0.2,0.4,0.3,0.6c0.1,0,0.2-0.1,0.3-0.1l0,0c0.9,2.3,2.2,3.7,3.8,4.2c1.4,0.4,2.8,0.1,3.5-0.3c-0.2,1.6-1,5-1.9,6.5
			c-0.3,0.5-0.8,1-0.7,1.1c0.2,0.2,0.7-0.1,1.8-0.6C44.9,34.7,42,39,37.3,39.7z"/>
	</g>
</g>
<g>
	<g>
		<ellipse class="st3" cx="27.8" cy="37.2" rx="0.9" ry="0.3"/>
	</g>
</g>
<g>
	<g>
		<g>
			<path class="st0" d="M20.8,38.7l2.8,3.4c1.1,1.7,1.7,2.3,2.3,4.2c0.9,2.9,1.5,2,2,6.2l-0.1,4.9L21.6,57c0,0-0.8-0.4-5.2-10.2
				c-0.3-0.7-1.4-7.4-1.4-7.4l4.4-0.6H20.8z"/>
		</g>
	</g>
	<g>
		<g>
			<g>
				<path class="st4" d="M20.9,38.3c-0.1,0.4-0.1,0.7-0.2,1.1l2.5,3.1c0.2,0.3,0.4,0.6,0.6,0.9c0.7,1,1.1,1.7,1.6,3.2
					c0.3,1,0.8,2,1.2,3.2c0.2,0.5,0.9,1.7,1.1,2.4c0.2-0.3,0.2-1.2,0.4-1.5c-0.1-0.3-0.6-0.8-0.7-1.1c-0.5-1.1-0.9-2.2-1.2-3.1
					c-0.5-1.6-1-2.4-1.7-3.5c-0.2-0.3-0.4-0.5-0.6-0.9l-3-3.6L20.9,38.3z"/>
			</g>
		</g>
	</g>
</g>
<g>
	<g>
		<g>
			<path class="st5" d="M54.7,51.6c0.1-3.5-1-4-3.6-6.2c-2.4-2-7.5-3.1-7.5-3.1c0-0.6,0.4-3.6,0.5-4.1c0.7-2.5,0.4-2.7,0.4-2.7
				s-3.1,0-7.1,0.9c-0.9,0.2-5.2,0.7-6.5,0.7l0.6,3.1H29l0.1,6.2L27.7,54c0,0-0.4,5.5-1.7,3.3c-1.2-2-1.2-1.7-2.1-3.3
				c-2.3-3.6-1.4-1.9-5-7.5c-0.6-0.9,2.6-2.2,2.4-3.2c-0.6-2-0.6-2-0.6-2l0.3-2.5l-8.2-1.4l0.2,0.9c0.1,0.6,0.3,1.1,0.5,1.7
				c0.3,0.8,0.7,1.6,1.1,2.5l0.3,0.6c0,0-7.6-0.1-10.4,4.2c-2,3-2,3.8-2.1,3.9c-0.6,2-0.6,3.7-0.4,5l1,1l30.2,0.5l21.2-1
				C54.4,56.8,54.6,54.1,54.7,51.6z"/>
		</g>
	</g>
	<g>
		<g>
			<path class="st4" d="M27.3,58.6L1.4,57.3c0,0,0-5.2,0.3-6.5c0.1-0.3,0.6-1.8,2.2-3.6c3.4-3.8,8.4-4.5,10.2-4.6
				c-0.4-0.8-0.8-1.6-1.1-2.5c-0.2-0.6-0.3-1.1-0.5-1.7l-0.3-1.6l9.2,1.6L21,41.3l0.5,2c0.2,0.8-0.6,1.4-1.3,2c-0.3,0.3-1,0.8-1,1
				c0.4,0.8,2.2,3.3,3.7,5.5l1.3,1.9c0.7,1.1,1.3,2,1.8,3c0.5,0.9,1.1-0.3,1.1-0.3l-0.1-2.5l1.4-7.6l0.1-6.6h2.5l-0.6-3.1H31
				c1.2,0,5.4-0.5,6.3-0.7c3.8-0.9,6.8-0.9,7.1-0.9h0.1l0.1,0.1c0.3,0.2,0.5,0.7-0.2,3.2c-0.1,0.5-0.4,2.7-0.5,3.6
				c1.2,0.3,5.2,1.2,7.3,3.1c2.7,2.4,4,3.5,3.7,7.1c-0.4,6.5-0.1,5.4-0.1,5.4L27.3,58.6z M29.6,40.7l-0.1,5.7l-1.2,10.3l12.1-0.1
				l12-0.1l1.8-0.2v-4.4c0.1-3.5-1-4-3.5-6.1c-2.3-1.9-7.2-3-7.2-3l-0.3-0.1v-0.4c0-0.7,0.4-3.7,0.5-4.3c0.3-1.2,0.4-1.8,0.4-2
				c-0.9,0-3.5,0.2-6.6,0.9c-0.8,0.2-4.3,0.6-6,0.7l0.6,3.1C32.2,40.7,29.6,40.7,29.6,40.7z M2.5,56.9l15.4,0.4
				c-0.1-0.2,9.5,1.8,5.6-3.1l-1.3-1.9c-1.6-2.4-3.3-4.7-3.7-5.5c-0.5-0.8,0.4-1.5,1.2-2.2c0.4-0.3,1.1-0.9,1-1.1l-0.6-2.2l0.2-2.2
				l-7.1-1.2l0.1,0.3c0.1,0.5,0.3,1.1,0.4,1.6c0.3,0.8,0.6,1.6,1.1,2.4l0.7,1.3h-0.8l0,0c-0.7,0-5.8,0.2-9.2,3.4
				c-1.1,1-2.3,2.6-2.8,4.1c-0.2,0.5-0.2,1.1-0.2,1.6C2.3,55,2.5,56.9,2.5,56.9z"/>
		</g>
	</g>
</g>
<g>
	<g>
		<path class="st4" d="M17.4,44.8c-0.1,0-0.2,0-0.3-0.1c-0.9-0.9-1.7-1.3-2.8-1.3c-0.2,0-0.5-0.2-0.5-0.5c0-0.3,0.2-0.5,0.5-0.5
			c1.2,0,2.3,0.5,3.4,1.5c0.2,0.2,0.2,0.5,0,0.6C17.6,44.7,17.5,44.8,17.4,44.8z"/>
	</g>
</g>
<g>
	<g>
		<path class="st6" d="M30.8,49.2"/>
	</g>
</g>
<g>
	<g>
		<path class="st7" d="M44.4,39.1"/>
	</g>
</g>
<g>
	<g>
		<path class="st4" d="M10.9,57.5L10.9,57.5c-0.3,0-0.5-0.2-0.4-0.5c0,0,0.2-3.7,0.1-4.9c0-0.2,0.1-0.5,0.4-0.5
			c0.2,0,0.5,0.1,0.5,0.4c0.2,1.3-0.1,5-0.1,5.1C11.3,57.3,11.1,57.5,10.9,57.5z"/>
	</g>
</g>
<g>
	<g>
		<path class="st4" d="M46,57.5c-0.2,0-0.5-0.1-0.7-0.3c-0.7-0.6-0.9-2.3-0.6-4.7c0-0.2,0.3-0.4,0.5-0.4s0.4,0.3,0.4,0.5
			c-0.3,2.9,0.1,3.7,0.3,3.9c0.1,0.1,0.1,0.1,0.2,0.1c0.2,0,0.5,0.1,0.5,0.3c0.1,0.2-0.1,0.5-0.4,0.5C46.1,57.5,46.1,57.5,46,57.5z"
			/>
	</g>
</g>
<g>
	<g>
		<path class="st4" d="M33.7,47c-0.1,0-0.2,0-0.3-0.1c-0.2-0.2-0.2-0.5,0-0.6c5.1-4.6,10.1-4.4,10.3-4.4c0.2,0,0.4,0.2,0.4,0.5
			c0,0.2-0.2,0.4-0.5,0.4c0,0-4.9-0.2-9.7,4.1C33.9,47,33.8,47,33.7,47z"/>
	</g>
</g>
<g>
	<g>
		<path class="st4" d="M33.1,44.6c-0.2,0-0.4-0.1-0.4-0.3c-0.1-0.2,0-0.5,0.3-0.6c6.2-2.2,10.2-1.8,10.4-1.8s0.4,0.2,0.4,0.5
			c0,0.2-0.2,0.4-0.5,0.4c0,0-4-0.3-10,1.7C33.2,44.6,33.1,44.6,33.1,44.6z"/>
	</g>
</g>
</svg>
